<svg id="R10-10bL" xmlns="http://www.w3.org/2000/svg" width="24in" height="30in" viewBox="0 0 1728 2160">
  <g>
    <rect width="1728" height="2160" rx="108" fill="#fff"/>
    <path d="M1620,2.2536A105.866,105.866,0,0,1,1725.7463,108V2052A105.8659,105.8659,0,0,1,1620,2157.7463H108A105.866,105.866,0,0,1,2.2536,2052V108A105.866,105.866,0,0,1,108,2.2536H1620M1620,0H108A108,108,0,0,0,0,108V2052a108,108,0,0,0,108,108H1620a108,108,0,0,0,108-108V108A108,108,0,0,0,1620,0Z"/>
  </g>
  <path d="M1620,27H108a81.0963,81.0963,0,0,0-81,81V2052a81.0964,81.0964,0,0,0,81,81H1620a81.0964,81.0964,0,0,0,81-81V108A81.0964,81.0964,0,0,0,1620,27Zm36,2025a36.0413,36.0413,0,0,1-36,36H108a36.0413,36.0413,0,0,1-36-36V108a36.0414,36.0414,0,0,1,36-36H1620a36.0414,36.0414,0,0,1,36,36Z"/>
  <g id="LEFT">
    <path d="M438.984,288h51.9292V599.9849H622.6717V648H438.984Z"/>
    <path d="M673.0744,288H842.8116v50.5353H725.0036V429.48h74.6993v49.2749H725.0036V597.51H856.7621V648H673.0744Z"/>
    <path d="M969.8947,429.48h72.2236v49.2749H969.8947V648H917.9655V288h183.6877v50.5353H969.8947Z"/>
    <path d="M1241.0643,648h-51.9292V336.0151h-65.8788V288H1306.944v48.0151h-65.88Z"/>
  </g>
  <g id="LANE">
    <path d="M388.62,900h51.9287v311.9854H572.3056V1260H388.62Z"/>
    <path d="M747.1306,1161.495H669.9119L645.8377,1260H593.909l89.9079-360h50.7139l89.863,360H772.4651ZM682.5567,1110.96h51.9292l-26.5948-103.59Z"/>
    <path d="M926.4582,1018.7548V1260H874.799V900h51.6592l98.3231,216V900h51.7031v360h-39.0583Z"/>
    <path d="M1155.6939,900H1325.43v50.5353H1207.6226V1041.48h74.6987v49.2749h-74.6987V1209.51H1339.38V1260H1155.6939Z"/>
  </g>
  <g id="SIGNAL">
    <path d="M291.1223,1827.8519c27.9,0,50.7146-25.29,50.7146-54.3593-.0449-76.6785-134.4139-76.4988-134.4139-174.3733,0-51.7948,40.59-93.4193,92.5643-93.4193,50.76,0,90.09,39.1049,91.3494,93.4642H341.792c-1.26-25.245-19.0348-41.6694-41.85-41.6694-24.12,0-43.11,17.6393-43.11,41.6245,0,21.5545,13.5449,30.1495,30.33,40.6792,48.69,29.3858,104.1291,64.845,104.1291,133.739,0,58.2755-44.4146,104.8494-100.2145,104.8494-63.4045,0-101.4293-53.6386-101.4293-112.4981h50.8045C240.4525,1796.5325,255.6176,1827.8519,291.1223,1827.8519Z"/>
    <path d="M452.5405,1511.999H502.94v359.999H452.5405Z"/>
    <path d="M686.5859,1878.2971c-32.76,0-111.6446-6.0745-111.6446-185.6687s75.0148-186.8835,107.82-186.8835c52.02,0,91.3494,37.8451,93.87,90.9h-52.02c-1.26-24.03-17.73-40.4555-43.11-40.4555-17.37,0-57.06,5.4445-57.06,136.4843s43.47,135.1336,60.84,135.1336c26.64,0,39.3295-17.5494,39.3295-55.5742v-23.9852h-40.59v-50.5789h92.61v74.5192C776.6305,1862.277,717.3208,1878.2971,686.5859,1878.2971Z"/>
    <path d="M900.2945,1630.7532V1871.998h-51.659V1511.999h51.659l98.3248,216v-216h51.7049v359.999h-39.06Z"/>
    <path d="M1253.9593,1773.4926H1176.74l-24.0751,98.5054h-51.9295l89.9094-359.999h50.7146l89.8645,359.999h-51.9295Zm-64.5746-50.535h51.93L1214.72,1619.369Z"/>
    <path d="M1381.6308,1511.999h51.93v311.9837H1565.32v48.0153h-183.689Z"/>
  </g>
</svg>
