<svg id="R10-10cL" xmlns="http://www.w3.org/2000/svg" width="24in" height="30in" viewBox="0 0 1728 2160">
  <g>
    <rect width="1728" height="2160" rx="108" fill="#fff"/>
    <path d="M1620,2.2536A105.866,105.866,0,0,1,1725.7463,108V2052A105.8659,105.8659,0,0,1,1620,2157.7463H108A105.866,105.866,0,0,1,2.2536,2052V108A105.866,105.866,0,0,1,108,2.2536H1620M1620,0H108A108,108,0,0,0,0,108V2052a108,108,0,0,0,108,108H1620a108,108,0,0,0,108-108V108A108,108,0,0,0,1620,0Z"/>
  </g>
  <path d="M1620,27H108a81.0963,81.0963,0,0,0-81,81V2052a81.0964,81.0964,0,0,0,81,81H1620a81.0964,81.0964,0,0,0,81-81V108A81.0964,81.0964,0,0,0,1620,27Zm36,2025a36.0413,36.0413,0,0,1-36,36H108a36.0413,36.0413,0,0,1-36-36V108a36.0414,36.0414,0,0,1,36-36H1620a36.0414,36.0414,0,0,1,36,36Z"/>
  <g id="LEFT">
    <path d="M461.376,216h46.7363V496.7867H626.6944V540H461.376Z"/>
    <path d="M681.1426,216H833.906v45.4816H727.8789v81.8506h67.2288V387.68H727.8789V494.5589H846.461V540H681.1426Z"/>
    <path d="M959.3063,343.3322h65.0021V387.68H959.3063V540H912.57V216h165.3189v45.4816H959.3063Z"/>
    <path d="M1207.26,540h-46.7363V259.2133h-59.2908V216H1266.552v43.2133H1207.26Z"/>
  </g>
  <g id="TURN">
    <path d="M494.0352,1008H447.2988V727.2165H388.008V684.0036H553.3265v43.2129H494.0352Z"/>
    <path d="M607.7689,913.8385V684.0036h46.4932V917.038c0,30.4962,17.82,51.1914,45.3593,51.1914,24.9479,0,43.1321-20.4521,43.1321-51.1914V684.0036h46.5337V914.527c0,73.7091-56.9421,99.143-89.6658,99.143C669.6923,1013.67,607.7689,994.19,607.7689,913.8385Z"/>
    <path d="M965.6015,855.6813H921.3351V1008H874.8419V684.0036h96.4289c50.8275,0,85.0894,34.1005,85.0894,86.3857,0,38.6365-15.9161,67.0671-46.5332,78.4477L1056.32,1008h-47.5869ZM921.3351,729.4847v81.85h47.628c27.2966,0,41.9977-14.7827,41.9977-40.9452,0-25.029-17.01-40.9046-41.9577-40.9046Z"/>
    <path d="M1168.9669,790.8819V1008h-46.4932V684.0036h46.4932l88.4919,194.3979V684.0036h46.5332V1008h-35.1536Z"/>
  </g>
  <g id="LANE">
    <path d="M422.496,1152h46.7362v280.7867h118.582V1476H422.496Z"/>
    <path d="M749.0588,1387.3456H679.5619L657.8951,1476H611.1588l80.9176-324h45.6429l80.877,324H771.86Zm-58.1163-45.4821h46.7362l-23.935-93.23Z"/>
    <path d="M919.5335,1258.88V1476h-46.493V1152h46.493l88.4917,194.4V1152h46.5332v324h-35.1536Z"/>
    <path d="M1140.1134,1152h152.7631v45.4811H1186.85v81.8511h67.2287V1323.68H1186.85v106.8794H1305.432V1476H1140.1134Z"/>
  </g>
  <g id="SIGNAL">
    <path d="M336.2686,1904.2709c25.1092,0,45.6424-22.76,45.6424-48.9235-.0406-69.0119-120.97-68.85-120.97-156.9363,0-46.6158,36.53-84.0775,83.3062-84.0775,45.6823,0,81.0785,35.194,82.2124,84.1175H381.87c-1.1343-22.72-17.1312-37.5027-37.6639-37.5027-21.7075,0-38.7977,15.8761-38.7977,37.4627,0,19.3989,12.19,27.1348,27.2962,36.6111,43.82,26.4472,93.7139,58.3607,93.7139,120.3662,0,52.4473-39.9721,94.3644-90.1908,94.3644-57.0627,0-91.2841-48.276-91.2841-101.25h45.7229C290.6669,1876.0833,304.315,1904.2709,336.2686,1904.2709Z"/>
    <path d="M481.55,1620.003h45.3586v323.9984H481.55Z"/>
    <path d="M692.1894,1949.6717c-29.4834,0-100.4775-5.4672-100.4775-167.1021s67.5115-168.196,97.0349-168.196c46.8167,0,82.2124,34.06,84.4806,81.81H726.4107c-1.1338-21.6266-15.9563-36.409-38.7977-36.409-15.6326,0-51.3526,4.9-51.3526,122.8352s39.122,121.6213,54.7546,121.6213c23.9752,0,35.3957-15.7951,35.3957-50.0174V1832.627h-36.53v-45.5219h83.3463v67.0684C773.2274,1935.2537,719.85,1949.6717,692.1894,1949.6717Z"/>
    <path d="M884.5315,1726.8819v217.12H838.0391V1620.003h46.4924l88.4895,194.399V1620.003h46.5335v323.9984h-35.153Z"/>
    <path d="M1202.8308,1855.3474h-69.4965l-21.666,88.654h-46.7357l80.916-323.9984h45.6428l80.8759,323.9984h-46.7356Zm-58.1161-45.4809H1191.45l-23.9348-93.2305Z"/>
    <path d="M1317.7405,1620.003h46.7357v280.7853h118.58v43.2131H1317.7405Z"/>
  </g>
</svg>
